<svg width="17" height="17" viewBox="0 0 17 17" fill="none" xmlns="http://www.w3.org/2000/svg">
<path d="M0.706055 8.39996C0.706055 12.88 4.06605 16.32 8.58606 16.32C13.1061 16.32 16.4861 12.88 16.4861 8.39996C16.4861 3.91996 13.1061 0.459961 8.58606 0.459961C4.06605 0.459961 0.706055 3.91996 0.706055 8.39996ZM8.58606 15.18C4.80606 15.18 2.00605 12.24 2.00605 8.39996C2.00605 4.55996 4.80606 1.59996 8.58606 1.59996C12.3661 1.59996 15.1861 4.55996 15.1861 8.39996C15.1861 12.24 12.3661 15.18 8.58606 15.18ZM12.0661 9.71996H10.6661C10.6261 10.34 10.2261 11.44 8.66605 11.44C7.00605 11.44 6.42605 10.16 6.42605 8.31996C6.42605 6.47996 7.20606 5.21996 8.68606 5.21996C9.86605 5.21996 10.4661 5.97996 10.5461 6.77996H12.0461C11.9061 4.89996 10.3661 4.13996 8.68606 4.13996C6.30605 4.13996 4.90605 5.93996 4.90605 8.37996C4.90605 10.92 6.20606 12.54 8.64606 12.54C10.5061 12.54 11.8661 11.56 12.0661 9.71996Z" fill="black"/>
</svg>
