<svg width="1686" height="162" viewBox="0 0 1686 162" fill="none" xmlns="http://www.w3.org/2000/svg">
<path d="M73.5831 129.546C32.7713 129.546 6.80017 108.212 6.80017 74.6664C6.80017 39.2653 34.9356 16.6952 79.1483 16.6952C115.941 16.6952 141.757 32.7726 145.313 58.1253L109.448 58.8983C105.583 49.4683 93.5252 43.5939 78.9937 43.5939C56.5782 43.5939 42.3559 55.3427 42.3559 73.8935C42.3559 92.2897 56.8873 104.039 79.7667 104.039C95.0711 104.039 107.438 98.7825 112.231 90.1255H66.3173V66.9369H145.931V128H111.921L112.231 120.425C102.182 126.3 89.0421 129.546 73.5831 129.546ZM149.344 128L196.494 19.787H239.779L286.929 128H249.828L241.634 107.903H193.866L185.518 128H149.344ZM204.378 82.3959H231.122L217.828 49.9321L204.378 82.3959ZM291.113 128V19.787H351.403C385.722 19.787 403.191 30.4537 403.191 51.4779C403.191 63.0722 397.78 71.4201 386.959 75.4394C399.171 78.995 404.273 87.0336 404.582 101.72L405.2 128H368.717L368.408 107.903C368.253 97.082 363.306 93.3718 349.239 93.3718H325.896V128H291.113ZM325.896 68.0191H349.084C360.833 68.0191 366.862 64.1543 366.862 56.5794C366.862 49.4683 361.142 45.7581 349.857 45.7581H325.896V68.0191ZM412.418 128V19.787H472.708C507.027 19.787 524.496 30.4537 524.496 51.4779C524.496 63.0722 519.085 71.4201 508.264 75.4394C520.476 78.995 525.578 87.0336 525.887 101.72L526.505 128H490.022L489.713 107.903C489.558 97.082 484.611 93.3718 470.544 93.3718H447.201V128H412.418ZM447.201 68.0191H470.389C482.138 68.0191 488.167 64.1543 488.167 56.5794C488.167 49.4683 482.447 45.7581 471.162 45.7581H447.201V68.0191ZM533.723 128V19.787H630.341V47.6132H568.505V60.2896H624.158V86.5699H568.505V99.5554H631.114V128H533.723ZM670.885 128V50.705H636.102V19.787H741.223V50.705H706.441V128H670.885ZM781.622 128V50.705H746.839V19.787H851.961V50.705H817.178V128H781.622ZM975.457 131.092C933.409 131.092 906.665 108.831 906.665 73.8935C906.665 38.9562 933.409 16.6952 975.457 16.6952C1015.03 16.6952 1040.39 35.246 1041.16 64.6181L1005.29 65.391C1004.37 53.0238 992.772 45.1398 975.457 45.1398C955.361 45.1398 942.53 56.2702 942.53 73.8935C942.53 91.5168 955.361 102.647 975.457 102.647C992.153 102.647 1003.75 94.454 1005.29 81.623H1041.16C1040.23 111.923 1014.72 131.092 975.457 131.092ZM1113.05 131.092C1071.15 131.092 1045.03 109.14 1045.03 73.8935C1045.03 38.647 1071.15 16.6952 1113.05 16.6952C1154.94 16.6952 1181.07 38.647 1181.07 73.8935C1181.07 109.14 1154.94 131.092 1113.05 131.092ZM1080.89 73.8935C1080.89 91.5168 1093.26 102.647 1113.05 102.647C1132.84 102.647 1145.2 91.5168 1145.2 73.8935C1145.2 56.2702 1132.84 45.1398 1113.05 45.1398C1093.26 45.1398 1080.89 56.2702 1080.89 73.8935ZM1187.2 128V19.787H1242.08L1263.73 87.8066L1285.37 19.787H1340.25V128H1305L1307.32 49.1591L1280.58 128H1246.57L1220.13 49.1591L1222.45 128H1187.2ZM1347.91 128V19.787H1413.61C1440.66 19.787 1456.12 29.8353 1456.12 47.6132C1456.12 59.5166 1449.17 68.3283 1436.8 71.4201C1452.1 73.2751 1460.76 82.7051 1460.76 97.3912C1460.76 116.87 1445.3 128 1418.25 128H1347.91ZM1382.69 104.811H1412.07C1419.95 104.811 1424.43 101.101 1424.43 94.7632C1424.43 88.425 1419.95 84.7148 1412.07 84.7148H1382.69V104.811ZM1382.69 62.4538H1408.2C1416.08 62.4538 1420.57 58.8983 1420.57 52.5601C1420.57 46.2219 1416.08 42.6663 1408.2 42.6663H1382.69V62.4538ZM1466.2 128V19.787H1562.81V47.6132H1500.98V60.2896H1556.63V86.5699H1500.98V99.5554H1563.59V128H1466.2ZM1626.1 131.092C1590.85 131.092 1568.28 115.633 1567.51 90.8984H1602.29C1603.06 100.483 1611.88 105.43 1627.03 105.43C1638.16 105.43 1644.49 102.802 1644.49 98.1641C1644.49 94.2994 1640.63 91.6713 1634.29 90.8984L1608.63 87.8066C1587.45 85.3332 1570.91 73.7389 1570.91 53.0238C1570.91 30.6083 1591.16 16.6952 1623.32 16.6952C1656.55 16.6952 1677.27 31.2267 1678.04 54.5697H1644.03C1643.26 45.9127 1635.06 42.048 1622.54 42.048C1611.88 42.048 1605.85 44.676 1605.85 49.1591C1605.85 53.1784 1609.71 55.8065 1616.05 56.5794L1638.93 59.362C1668.3 62.9176 1680.36 78.222 1680.36 95.5361C1680.36 118.415 1659.49 131.092 1626.1 131.092Z" fill="black"/>
</svg>
