<svg width="23" height="30" viewBox="0 0 23 30" fill="none" xmlns="http://www.w3.org/2000/svg">
<path d="M22.9918 13.5713H15.9321L15.6552 14.298C18.1815 14.298 18.2161 14.6441 17.4202 16.6513C16.0705 19.8696 14.6171 22.4651 13.0252 24.3339C11.0872 21.1847 10.3605 16.2014 10.2567 13.0522C10.7411 12.7407 11.2602 12.4293 11.7793 12.1178C15.3784 10.0068 20.0502 7.37677 20.0502 3.22401C20.0502 1.35527 18.8736 0.455505 17.2471 0.455505C13.8211 0.455505 8.24949 4.71208 8.24949 12.6023V13.156C4.13134 15.7169 0.290039 18.7622 0.290039 23.5379C0.290039 27.3446 2.74709 29.1787 6.03469 29.1787C8.11107 29.1787 10.1182 28.3828 12.0562 26.6871C13.2328 28.106 14.7209 29.0403 16.6242 29.0403C20.2579 29.0403 22.5073 26.341 22.5073 22.2229C22.5073 20.8386 22.2651 19.662 21.919 18.4854L21.2615 18.7276C21.5383 19.835 21.6421 20.8386 21.6421 21.8076C21.6421 25.1298 20.0156 27.2754 17.4548 27.2754C15.8629 27.2754 14.5824 26.4448 13.5789 25.1644C15.3784 23.1226 17.1087 20.3195 18.839 16.6167C19.7042 14.6095 20.777 14.298 22.7149 14.298L22.9918 13.5713ZM17.0395 1.38987C18.0431 1.38987 18.7006 2.01279 18.7006 3.22401C18.7006 6.54622 14.4094 9.62618 10.9834 11.5641C10.7411 11.7026 10.4643 11.841 10.2221 12.014C10.2567 5.33499 14.5478 1.38987 17.0395 1.38987ZM6.72681 27.8637C4.4428 27.8637 2.47024 26.6525 2.47024 23.2611C2.47024 19.4544 4.96189 16.6859 8.3187 14.3326C8.52634 17.7587 9.3915 22.7074 11.5025 25.8911C10.0144 27.1716 8.42252 27.8637 6.72681 27.8637Z" fill="black"/>
</svg>
